<svg xmlns="http://www.w3.org/2000/svg" viewBox="0 0 22.87 22.87"><defs><style>.cls-1{fill:#a3a3a3;}</style></defs><g id="Слой_2" data-name="Слой 2"><g id="Слой_6" data-name="Слой 6"><path class="cls-1" d="M0,22.87V0H22.87V22.87Zm14.6-3c1.21,0,2.29,0,3.38,0,1.33,0,1.87-.54,1.88-1.86q0-6.45,0-12.9c0-1.32-.55-1.86-1.88-1.87q-6.45,0-12.89,0c-1.32,0-1.85.55-1.86,1.89q0,6.39,0,12.78c0,1.44.55,1.94,2,2,2,0,4.08,0,6.11,0a7.89,7.89,0,0,0,.85-.09V13.13L10.09,13V10.88l2.1-.14C12.21,6,14.36,6,17,6.5c0,.31,0,.65,0,1s0,.65-.06,1c-2.4.32-2.65.59-2.16,2.33l2.19.1c-.12.71,0,1.56-.37,1.89s-1.28.34-2,.48Z"/></g></g></svg>