<svg xmlns="http://www.w3.org/2000/svg" viewBox="0 0 22.87 22.87"><defs><style>.cls-1{fill:#a3a3a3;}</style></defs><g id="Слой_2" data-name="Слой 2"><g id="Слой_6" data-name="Слой 6"><path class="cls-1" d="M22.87,22.87H0V0H22.87ZM11.62,20.6c1.24,0,2.49,0,3.74,0a5.27,5.27,0,0,0,5.27-5.27c0-2.52,0-5.06,0-7.58a5.25,5.25,0,0,0-5.27-5.27q-3.79,0-7.59,0A5.24,5.24,0,0,0,2.5,7.74q-.06,3.8,0,7.59A5.26,5.26,0,0,0,7.76,20.6C9,20.62,10.33,20.6,11.62,20.6Z"/><path class="cls-1" d="M16.1,11.52A4.54,4.54,0,1,1,11.55,7,4.56,4.56,0,0,1,16.1,11.52Zm-4.58,3a3,3,0,1,0-2.95-3.06A2.94,2.94,0,0,0,11.52,14.52Z"/><path class="cls-1" d="M17.84,6.24c-.42.33-.73.74-.94.69s-.52-.47-.78-.73c.25-.23.49-.62.75-.64S17.41,5.92,17.84,6.24Z"/></g></g></svg>