<svg xmlns="http://www.w3.org/2000/svg" viewBox="0 0 22.87 22.87"><defs><style>.cls-1{fill:#a3a3a3;}</style></defs><g id="Слой_2" data-name="Слой 2"><g id="Слой_6" data-name="Слой 6"><path class="cls-1" d="M0,22.87V0H22.87V22.87ZM2.23,18c.16.1.31.21.47.29a11.35,11.35,0,0,0,16.5-8.6c.16-1.37.3-2.59,1.53-3.41.15-.1.21-.33.38-.59L19.46,6l1.23-1.74L20.51,4a3.08,3.08,0,0,1-3.62,0c-2.47-1.35-5.47.65-5.57,3.48,0,.33,0,.66,0,1A11.65,11.65,0,0,1,3.09,4.33c-1,2-.46,3.67,1,5.31L2.54,9.32c.1,1.91,1.2,3,2.91,3.9l-1.64.23a12.9,12.9,0,0,0,1.63,1.79,10.8,10.8,0,0,0,2,1A9.68,9.68,0,0,1,2.23,18Z"/></g></g></svg>