<svg xmlns="http://www.w3.org/2000/svg" viewBox="0 0 22.87 22.87"><defs><style>.cls-1{fill:#a3a3a3;}</style></defs><g id="Слой_2" data-name="Слой 2"><g id="Слой_6" data-name="Слой 6"><path class="cls-1" d="M0,0H22.87V22.87H0ZM21.34,11.42h0c0-1.54,0-3.09,0-4.64a2.87,2.87,0,0,0-2.46-2.94,34.18,34.18,0,0,0-14.59,0,2.87,2.87,0,0,0-2.5,3c0,3,0,6,0,8.94a2.87,2.87,0,0,0,2.52,3,34.31,34.31,0,0,0,14.48,0,2.92,2.92,0,0,0,2.56-3.1C21.36,14.29,21.34,12.86,21.34,11.42Z"/><path class="cls-1" d="M9.33,14.77V7.88l6,3.44Z"/></g></g></svg>