<svg xmlns="http://www.w3.org/2000/svg" viewBox="0 0 24.67 44.1"><defs><style>.cls-1{fill:#fff;}</style></defs><g id="Слой_2" data-name="Слой 2"><g id="Слой_6" data-name="Слой 6"><path class="cls-1" d="M.06,0A25.16,25.16,0,0,0,2,7.84a20.62,20.62,0,0,0,4.31,6.59,10.66,10.66,0,0,0,1.44,1.33A11.26,11.26,0,0,0,9.26,17L10.9,18c.58.3,1.18.56,1.77.85l.88.42c.31.12.62.21.93.32l1.87.62c1.27.35,2.58.55,3.87.83l4.45,1-4.45,1c-1.29.29-2.6.49-3.87.83l-1.87.63-.93.31-.88.43c-.59.28-1.19.55-1.77.84L9.26,27.15a10,10,0,0,0-1.54,1.2,9.52,9.52,0,0,0-1.44,1.32A20.63,20.63,0,0,0,2,36.27,25.1,25.1,0,0,0,.06,44.1,18.87,18.87,0,0,1,.18,40c.07-.69.23-1.36.34-2s.34-1.35.52-2a20.16,20.16,0,0,1,4.08-7.31A12.58,12.58,0,0,1,6.6,27.09a11.76,11.76,0,0,1,1.63-1.36L10,24.51c.62-.34,1.25-.66,1.88-1l1-.49c.33-.13.67-.23,1-.35l2-.7c1.35-.38,2.74-.62,4.11-.93v2c-1.37-.31-2.76-.55-4.11-.93l-2-.7c-.33-.12-.67-.22-1-.35l-1-.49c-.63-.32-1.26-.64-1.88-1L8.23,18.37A12.37,12.37,0,0,1,6.6,17a11.79,11.79,0,0,1-1.47-1.53A19.87,19.87,0,0,1,1.05,8.17C.86,7.5.69,6.83.52,6.15S.25,4.8.18,4.11A18.85,18.85,0,0,1,.06,0Z"/></g></g></svg>