<svg xmlns="http://www.w3.org/2000/svg" viewBox="0 0 171.07 180.01"><defs><style>.cls-1{font-size:28.75px;font-family:BodoniMT, Bodoni MT;}.cls-1,.cls-7{fill:#fff;}.cls-2{font-size:48px;}.cls-3{letter-spacing:-0.1em;}.cls-4{letter-spacing:-0.03em;}.cls-5{font-size:30px;}.cls-6{letter-spacing:-0.01em;}</style></defs><g id="Слой_2" data-name="Слой 2"><g id="Слой_11" data-name="Слой 11"><text class="cls-1" transform="translate(38.13 77.67)">the<tspan class="cls-2"><tspan class="cls-3" x="0" y="36">W</tspan><tspan class="cls-4" x="41.63" y="36">a</tspan><tspan x="63.82" y="36">y</tspan></tspan><tspan class="cls-5"><tspan x="0" y="53">on</tspan></tspan><tspan class="cls-2"><tspan x="0" y="89"> </tspan><tspan class="cls-3" x="11.77" y="89">W</tspan><tspan class="cls-6" x="53.39" y="89">a</tspan><tspan x="76.45" y="89">ter</tspan></tspan></text><path class="cls-7" d="M34.3,135.5l-33.79.32H.19v-.32L0,118.62C0,113,0,107.37,0,101.75V0H136V62.45c.05,10.33-.14,20.65-.21,31l-.29,31-.29-31c-.07-10.33-.26-20.65-.21-31V.5l.5.5H.51L1,.5V101.75c0,5.62,0,11.25,0,16.87L.83,135.5l-.32-.32Z"/></g></g></svg>