<svg xmlns="http://www.w3.org/2000/svg" viewBox="0 0 856.74 902.12"><defs><style>.cls-1{fill:#fff;}</style></defs><g id="Слой_2" data-name="Слой 2"><g id="Слой_1-2" data-name="Слой 1"><path class="cls-1" d="M356,0c9,1.12,18,2,27,3.39C509.77,23,601.79,91.25,650.1,209.26c51.68,126.23,30.6,244.94-56.72,350.82-3.17,3.84-6.49,7.56-10.11,11.77,4.62,5.14,9.05,10.15,13.56,15.07Q722.71,724.29,848.68,861.58c7.28,7.93,10.09,16.38,6.52,26.54-2.94,8.37-9.72,12.26-18,13.69-9.51,1.65-16.14-3.44-22.14-10q-52.94-57.84-106-115.59-77.4-84.42-154.78-168.85c-1.36-1.49-2.59-3.11-2.83-3.4-23.44,13.77-45.16,28.36-68.41,39.82-50.16,24.7-103.7,34.78-159.59,32.28-60.54-2.72-116.48-20.2-167.44-52.94A335.83,335.83,0,0,1,37.66,493.18,323.89,323.89,0,0,1,1.31,361.91,36.85,36.85,0,0,0,0,356V320.72a51.08,51.08,0,0,0,1.36-6.84c2-31.22,7.78-61.74,19.33-90.84C70.21,98.35,160.93,24.61,293.76,3.4c8.94-1.42,18-2.28,27-3.4ZM631.37,338.47c.28-161.2-131.28-292.88-292.9-293.16C177.27,45,45.59,176.59,45.31,338.21,45,499.41,176.59,631.09,338.21,631.37,499.41,631.65,631.09,500.09,631.37,338.47Z"/></g></g></svg>